<svg xmlns="http://www.w3.org/2000/svg" viewBox="0 0 800 600">
  <defs>
    <linearGradient id="bg" x1="0" y1="0" x2="0" y2="1">
      <stop offset="0" stop-color="#0c0b0d"/><stop offset="0.6" stop-color="#151316"/><stop offset="1" stop-color="#1c171b"/>
    </linearGradient>
    <filter id="rough"><feTurbulence type="fractalNoise" baseFrequency="0.8" numOctaves="2" seed="88"/><feColorMatrix type="saturate" values="0"/><feComponentTransfer><feFuncA type="linear" slope="0.13"/></feComponentTransfer></filter>
  </defs>
  <rect width="800" height="600" fill="url(#bg)"/>
  <g stroke="#221e22" stroke-width="3" opacity="0.9" fill="none">
    <path d="M100 80 L 100 520 M 700 80 L 700 520 M 100 300 L 700 300"/>
  </g>
  <g>
    <path d="M400 200 C 372 200 361 226 364 252 C 366 272 380 284 400 284 C 420 284 434 272 436 252 C 439 226 428 200 400 200 Z" fill="#141216" stroke="#332d33" stroke-width="4"/>
    <path d="M335 500 C 337 405 360 325 400 318 C 440 325 463 405 465 500 Z" fill="#100e12" stroke="#332d33" stroke-width="4"/>
    <path d="M370 236 L 430 236 L 427 250 L 373 250 Z" fill="#0c0b0d" stroke="#4a3f45" stroke-width="2"/>
    <path d="M398 340 L 402 340 L 401 372 L 399 372 Z" fill="#c23b4e"/>
    <circle cx="400" cy="384" r="3.5" fill="#c23b4e"/>
  </g>
  <rect width="800" height="600" filter="url(#rough)" opacity="0.55"/>
</svg>
