<svg xmlns="http://www.w3.org/2000/svg" viewBox="0 0 800 600">
  <defs>
    <linearGradient id="bg" x1="0" y1="0" x2="0" y2="1">
      <stop offset="0" stop-color="#0d0a0b"/><stop offset="0.55" stop-color="#181114"/><stop offset="1" stop-color="#241419"/>
    </linearGradient>
    <radialGradient id="win" cx="0.5" cy="0.3" r="0.5">
      <stop offset="0" stop-color="#8d95a6" stop-opacity="0.4"/><stop offset="1" stop-color="#8d95a6" stop-opacity="0"/>
    </radialGradient>
    <filter id="rough"><feTurbulence type="fractalNoise" baseFrequency="0.8" numOctaves="2" seed="66"/><feColorMatrix type="saturate" values="0"/><feComponentTransfer><feFuncA type="linear" slope="0.12"/></feComponentTransfer></filter>
  </defs>
  <rect width="800" height="600" fill="url(#bg)"/>
  <rect x="230" y="60" width="340" height="380" fill="url(#win)"/>
  <g stroke="#241c20" stroke-width="3" opacity="0.9" fill="none">
    <path d="M230 60 L230 440 M570 60 L570 440 M300 60 L300 440 M500 60 L500 440 M400 60 L400 440"/>
  </g>
  <g>
    <path d="M400 190 C 368 190 355 220 358 250 C 360 274 376 288 400 288 C 424 288 440 274 442 250 C 445 220 432 190 400 190 Z" fill="#15121a" stroke="#3a3140" stroke-width="4"/>
    <path d="M320 500 C 322 400 350 320 400 312 C 450 320 478 400 480 500 Z" fill="#12101a" stroke="#3a3140" stroke-width="4"/>
    <path d="M368 330 L 400 370 L 432 330 L 424 314 L 400 336 L 376 314 Z" fill="#1d1a26" stroke="#3a3140" stroke-width="3"/>
    <path d="M392 340 L 408 340 L 404 420 L 396 420 Z" fill="#c23b4e"/>
  </g>
  <g fill="#c23b4e" opacity="0.8"><circle cx="400" cy="120" r="3"/></g>
  <rect width="800" height="600" filter="url(#rough)" opacity="0.5"/>
</svg>
