<svg xmlns="http://www.w3.org/2000/svg" viewBox="0 0 800 600">
  <defs>
    <linearGradient id="bg" x1="0" y1="0" x2="0" y2="1">
      <stop offset="0" stop-color="#122414"/>
      <stop offset="0.6" stop-color="#20512c"/>
      <stop offset="1" stop-color="#57c273"/>
    </linearGradient>
    <radialGradient id="light" cx="0.3" cy="0.3" r="0.45">
      <stop offset="0" stop-color="#eaffc4" stop-opacity="0.9"/>
      <stop offset="0.6" stop-color="#8fdc9f" stop-opacity="0.25"/>
      <stop offset="1" stop-color="#8fdc9f" stop-opacity="0"/>
    </radialGradient>
    <filter id="rough"><feTurbulence type="fractalNoise" baseFrequency="0.75" numOctaves="2" seed="17"/><feColorMatrix type="saturate" values="0"/><feComponentTransfer><feFuncA type="linear" slope="0.15"/></feComponentTransfer></filter>
  </defs>
  <rect width="800" height="600" fill="url(#bg)"/>
  <circle cx="240" cy="180" r="240" fill="url(#light)"/>
  <g stroke="#173a20" stroke-width="26" fill="none" stroke-linecap="round" opacity="0.9">
    <path d="M120 600 L 150 80"/>
    <path d="M640 600 L 610 40"/>
    <path d="M710 600 L 700 200"/>
  </g>
  <g>
    <path d="M330 560 L 360 350 L 340 340 L 380 250 L 420 340 L 400 350 L 430 560 Z" fill="#14301c" stroke="#8fdc9f" stroke-width="5"/>
    <circle cx="380" cy="210" r="26" fill="#eaffc4"/>
    <path d="M380 250 L 470 190 L 480 210 L 395 265 Z" fill="#57c273"/>
  </g>
  <g fill="#eaffc4" opacity="0.9">
    <circle cx="520" cy="120" r="4"/><circle cx="300" cy="100" r="3"/><circle cx="560" cy="300" r="3.5"/>
    <circle cx="220" cy="380" r="3"/><circle cx="480" cy="420" r="2.5"/>
  </g>
  <rect width="800" height="600" filter="url(#rough)" opacity="0.5"/>
</svg>
