<svg xmlns="http://www.w3.org/2000/svg" viewBox="0 0 800 600">
  <defs>
    <linearGradient id="bg" x1="0" y1="0" x2="1" y2="1">
      <stop offset="0" stop-color="#211511"/>
      <stop offset="0.65" stop-color="#54281a"/>
      <stop offset="1" stop-color="#a8451f"/>
    </linearGradient>
    <radialGradient id="heat" cx="0.35" cy="0.7" r="0.45">
      <stop offset="0" stop-color="#ffb066" stop-opacity="0.95"/>
      <stop offset="0.6" stop-color="#d4552a" stop-opacity="0.35"/>
      <stop offset="1" stop-color="#d4552a" stop-opacity="0"/>
    </radialGradient>
    <filter id="rough"><feTurbulence type="fractalNoise" baseFrequency="0.75" numOctaves="2" seed="55"/><feColorMatrix type="saturate" values="0"/><feComponentTransfer><feFuncA type="linear" slope="0.17"/></feComponentTransfer></filter>
  </defs>
  <rect width="800" height="600" fill="url(#bg)"/>
  <ellipse cx="280" cy="420" rx="260" ry="200" fill="url(#heat)"/>
  <g>
    <rect x="180" y="430" width="240" height="60" rx="12" fill="#2b1a14" stroke="#804020" stroke-width="5"/>
    <path d="M300 430 L300 340 L340 300 L380 340 L380 430 Z" fill="#3a2218" stroke="#804020" stroke-width="5"/>
    <path d="M470 210 L560 300 L520 340 L430 250 Z" fill="#565b66" stroke="#2b2e35" stroke-width="6"/>
    <rect x="540" y="280" width="26" height="180" rx="10" transform="rotate(45 553 370)" fill="#6e4a2f"/>
  </g>
  <g fill="#ffb066">
    <circle cx="330" cy="270" r="6"/><circle cx="390" cy="230" r="4"/><circle cx="430" cy="300" r="5"/>
    <circle cx="290" cy="200" r="3"/><circle cx="480" cy="180" r="3.5"/>
  </g>
  <rect width="800" height="600" filter="url(#rough)" opacity="0.5"/>
</svg>
