<svg xmlns="http://www.w3.org/2000/svg" viewBox="0 0 800 600">
  <defs>
    <linearGradient id="bg" x1="0" y1="0" x2="0" y2="1">
      <stop offset="0" stop-color="#0e0d0b"/><stop offset="0.6" stop-color="#1c1a15"/><stop offset="1" stop-color="#282318"/>
    </linearGradient>
    <radialGradient id="glow" cx="0.5" cy="0.42" r="0.45">
      <stop offset="0" stop-color="#c9973d" stop-opacity="0.35"/><stop offset="1" stop-color="#c9973d" stop-opacity="0"/>
    </radialGradient>
    <filter id="rough"><feTurbulence type="fractalNoise" baseFrequency="0.75" numOctaves="2" seed="44"/><feColorMatrix type="saturate" values="0"/><feComponentTransfer><feFuncA type="linear" slope="0.14"/></feComponentTransfer></filter>
  </defs>
  <rect width="800" height="600" fill="url(#bg)"/>
  <ellipse cx="400" cy="260" rx="300" ry="240" fill="url(#glow)"/>
  <g>
    <path d="M400 140 C 355 140 338 178 342 216 C 345 248 368 266 400 266 C 432 266 455 248 458 216 C 462 178 445 140 400 140 Z" fill="#181510" stroke="#40382a" stroke-width="5"/>
    <path d="M295 480 C 298 360 330 292 400 286 C 470 292 502 360 505 480 Z" fill="#13110d" stroke="#40382a" stroke-width="5"/>
    <path d="M320 330 L 302 420 M480 330 L 498 420" stroke="#c9973d" stroke-width="7" fill="none" stroke-linecap="round"/>
    <rect x="352" y="308" width="96" height="30" rx="6" fill="none" stroke="#c9973d" stroke-width="4"/>
    <path d="M330 300 C 330 280 350 272 360 278 M470 300 C 470 280 450 272 440 278" stroke="#8a6f3a" stroke-width="6" fill="none"/>
    <path d="M368 150 C 372 142 380 138 388 140 M432 150 C 428 142 420 138 412 140" stroke="#d8d3c4" stroke-width="5" fill="none"/>
  </g>
  <rect width="800" height="600" filter="url(#rough)" opacity="0.55"/>
</svg>
