<svg xmlns="http://www.w3.org/2000/svg" viewBox="0 0 800 600">
  <defs>
    <linearGradient id="bg" x1="0" y1="0" x2="0" y2="1">
      <stop offset="0" stop-color="#0b0d12"/><stop offset="0.6" stop-color="#1a1e28"/><stop offset="1" stop-color="#252a36"/>
    </linearGradient>
    <radialGradient id="glow" cx="0.5" cy="0.38" r="0.42">
      <stop offset="0" stop-color="#aeb6c4" stop-opacity="0.5"/><stop offset="1" stop-color="#aeb6c4" stop-opacity="0"/>
    </radialGradient>
    <filter id="rough"><feTurbulence type="fractalNoise" baseFrequency="0.8" numOctaves="2" seed="12"/><feColorMatrix type="saturate" values="0"/><feComponentTransfer><feFuncA type="linear" slope="0.12"/></feComponentTransfer></filter>
  </defs>
  <rect width="800" height="600" fill="url(#bg)"/>
  <circle cx="400" cy="230" r="210" fill="url(#glow)"/>
  <g stroke="#2c313d" stroke-width="3" opacity="0.7" fill="none">
    <path d="M60 470 L740 470 M100 500 L700 500"/>
    <path d="M340 80 L340 30 M460 80 L460 30"/>
  </g>
  <g>
    <path d="M400 150 C 360 150 345 185 348 220 C 350 250 370 268 400 268 C 430 268 450 250 452 220 C 455 185 440 150 400 150 Z" fill="#181b22" stroke="#3a4150" stroke-width="4"/>
    <path d="M320 470 C 320 360 350 290 400 285 C 450 290 480 360 480 470 Z" fill="#14161d" stroke="#3a4150" stroke-width="4"/>
    <path d="M352 300 L 340 380 M448 300 L 460 380" stroke="#4a5264" stroke-width="5" fill="none"/>
    <path d="M370 300 L 372 340 L 428 340 L 430 300" fill="none" stroke="#4a5264" stroke-width="3"/>
    <path d="M368 160 C 380 140 425 138 442 158 C 448 145 430 128 400 128 C 375 128 362 145 368 160 Z" fill="#d8d3c4"/>
    <path d="M382 138 C 386 128 398 124 404 130 L 396 166 L 384 164 Z" fill="#d42a3d"/>
  </g>
  <rect width="800" height="600" filter="url(#rough)" opacity="0.5"/>
</svg>
