<svg xmlns="http://www.w3.org/2000/svg" viewBox="0 0 800 600">
  <defs>
    <linearGradient id="bg" x1="0" y1="0" x2="0" y2="1">
      <stop offset="0" stop-color="#020c14"/>
      <stop offset="0.5" stop-color="#083048"/>
      <stop offset="1" stop-color="#125a80"/>
    </linearGradient>
    <radialGradient id="abyss" cx="0.5" cy="0.55" r="0.55">
      <stop offset="0" stop-color="#7fd1f0" stop-opacity="0.7"/>
      <stop offset="0.55" stop-color="#2a9dd4" stop-opacity="0.2"/>
      <stop offset="1" stop-color="#2a9dd4" stop-opacity="0"/>
    </radialGradient>
    <filter id="drift"><feTurbulence type="turbulence" baseFrequency="0.01 0.025" numOctaves="2" seed="99"/><feDisplacementMap in="SourceGraphic" scale="38"/></filter>
    <filter id="rough"><feTurbulence type="fractalNoise" baseFrequency="0.8" numOctaves="2" seed="61"/><feColorMatrix type="saturate" values="0"/><feComponentTransfer><feFuncA type="linear" slope="0.15"/></feComponentTransfer></filter>
  </defs>
  <rect width="800" height="600" fill="url(#bg)"/>
  <ellipse cx="400" cy="320" rx="340" ry="260" fill="url(#abyss)"/>
  <g filter="url(#drift)">
    <path d="M120 380 C 220 240 380 220 480 280 C 580 340 640 320 700 240 C 690 380 570 440 460 420 C 350 400 240 440 180 520 C 140 470 110 430 120 380 Z"
      fill="#041e2e" stroke="#7fd1f0" stroke-width="6" opacity="0.95"/>
    <circle cx="560" cy="290" r="18" fill="#9fe4ff"/>
    <path d="M660 250 L 730 190 L 720 270 Z" fill="#041e2e" stroke="#7fd1f0" stroke-width="5"/>
  </g>
  <g stroke="#7fd1f0" stroke-width="2.5" opacity="0.5" fill="none">
    <path d="M80 120 Q 240 90 400 120 T 720 110"/>
    <path d="M100 170 Q 280 140 440 170 T 740 160"/>
  </g>
  <rect width="800" height="600" filter="url(#rough)" opacity="0.5"/>
</svg>
