<svg xmlns="http://www.w3.org/2000/svg" viewBox="0 0 800 600">
  <defs>
    <linearGradient id="bg" x1="0" y1="0" x2="0" y2="1">
      <stop offset="0" stop-color="#0a0d10"/><stop offset="0.6" stop-color="#131a1f"/><stop offset="1" stop-color="#1a242b"/>
    </linearGradient>
    <radialGradient id="pulse" cx="0.42" cy="0.55" r="0.3">
      <stop offset="0" stop-color="#35c4c9" stop-opacity="0.8"/><stop offset="0.5" stop-color="#35c4c9" stop-opacity="0.25"/><stop offset="1" stop-color="#35c4c9" stop-opacity="0"/>
    </radialGradient>
    <filter id="rough"><feTurbulence type="fractalNoise" baseFrequency="0.8" numOctaves="2" seed="55"/><feColorMatrix type="saturate" values="0"/><feComponentTransfer><feFuncA type="linear" slope="0.12"/></feComponentTransfer></filter>
  </defs>
  <rect width="800" height="600" fill="url(#bg)"/>
  <circle cx="336" cy="330" r="150" fill="url(#pulse)"/>
  <g>
    <path d="M420 170 C 388 170 375 200 378 230 C 380 254 396 268 420 268 C 444 268 460 254 462 230 C 465 200 452 170 420 170 Z" fill="#141a1e" stroke="#31414a" stroke-width="4"/>
    <path d="M340 480 C 342 380 368 300 420 292 C 472 300 498 380 500 480 Z" fill="#101619" stroke="#31414a" stroke-width="4"/>
    <path d="M372 310 C 350 330 336 340 330 356" stroke="#31414a" stroke-width="8" fill="none" stroke-linecap="round"/>
    <circle cx="330" cy="360" r="12" fill="#0e1417" stroke="#35c4c9" stroke-width="3"/>
    <path d="M372 314 C 358 330 346 342 336 354" stroke="#35c4c9" stroke-width="2.5" fill="none" opacity="0.9"/>
    <path d="M404 300 L 404 340 L 436 340 L 436 300" fill="none" stroke="#35c4c9" stroke-width="3" opacity="0.85"/>
  </g>
  <g stroke="#1d262c" stroke-width="2.5" opacity="0.9" fill="none">
    <path d="M90 110 L 710 110 M130 82 L 670 82"/>
  </g>
  <rect width="800" height="600" filter="url(#rough)" opacity="0.5"/>
</svg>
