<svg xmlns="http://www.w3.org/2000/svg" viewBox="0 0 800 600">
  <defs>
    <linearGradient id="bg" x1="0" y1="0" x2="1" y2="1">
      <stop offset="0" stop-color="#0b1a10"/>
      <stop offset="0.6" stop-color="#1d4d2b"/>
      <stop offset="1" stop-color="#3fae5a"/>
    </linearGradient>
    <radialGradient id="sun" cx="0.7" cy="0.25" r="0.4">
      <stop offset="0" stop-color="#d8ffb0" stop-opacity="0.95"/>
      <stop offset="0.6" stop-color="#7ddc8f" stop-opacity="0.3"/>
      <stop offset="1" stop-color="#7ddc8f" stop-opacity="0"/>
    </radialGradient>
    <filter id="rough"><feTurbulence type="fractalNoise" baseFrequency="0.7" numOctaves="2" seed="23"/><feColorMatrix type="saturate" values="0"/><feComponentTransfer><feFuncA type="linear" slope="0.15"/></feComponentTransfer></filter>
  </defs>
  <rect width="800" height="600" fill="url(#bg)"/>
  <circle cx="560" cy="150" r="220" fill="url(#sun)"/>
  <g stroke="#2c7a41" stroke-width="14" fill="none" stroke-linecap="round">
    <path d="M100 600 C 180 420 140 320 260 220 S 420 120 430 60"/>
    <path d="M300 600 C 360 480 320 380 440 300 S 600 220 640 140"/>
    <path d="M550 600 C 560 500 620 460 600 360"/>
  </g>
  <g stroke="#3fae5a" stroke-width="6" fill="none" stroke-linecap="round">
    <path d="M260 220 l 40 -8 M260 220 l -30 -28 M440 300 l 44 -4 M440 300 l -20 -40 M600 360 l 36 -16"/>
  </g>
  <g fill="#d8ffb0">
    <circle cx="430" cy="60" r="12"/><circle cx="640" cy="140" r="9"/><circle cx="600" cy="356" r="7"/>
    <circle cx="200" cy="330" r="4"/><circle cx="500" cy="240" r="4"/><circle cx="360" cy="420" r="3"/>
  </g>
  <rect width="800" height="600" filter="url(#rough)" opacity="0.5"/>
</svg>
