<svg xmlns="http://www.w3.org/2000/svg" viewBox="0 0 800 600">
  <defs>
    <linearGradient id="bg" x1="0" y1="0" x2="0" y2="1">
      <stop offset="0" stop-color="#090b10"/><stop offset="0.6" stop-color="#101521"/><stop offset="1" stop-color="#151d2e"/>
    </linearGradient>
    <radialGradient id="beam" cx="0.5" cy="0.42" r="0.4">
      <stop offset="0" stop-color="#7fb4e8" stop-opacity="0.9"/><stop offset="0.4" stop-color="#3d8fd6" stop-opacity="0.35"/><stop offset="1" stop-color="#3d8fd6" stop-opacity="0"/>
    </radialGradient>
    <filter id="rough"><feTurbulence type="fractalNoise" baseFrequency="0.8" numOctaves="2" seed="11"/><feColorMatrix type="saturate" values="0"/><feComponentTransfer><feFuncA type="linear" slope="0.12"/></feComponentTransfer></filter>
  </defs>
  <rect width="800" height="600" fill="url(#bg)"/>
  <ellipse cx="400" cy="250" rx="240" ry="220" fill="url(#beam)"/>
  <g>
    <ellipse cx="400" cy="470" rx="190" ry="40" fill="#0d1119" stroke="#2a3550" stroke-width="4"/>
    <ellipse cx="400" cy="466" rx="150" ry="30" fill="none" stroke="#3d8fd6" stroke-width="3" opacity="0.8"/>
    <path d="M310 460 L 330 130 L 336 130 L 322 460 Z" fill="#7fb4e8" opacity="0.35"/>
    <path d="M478 460 L 464 130 L 470 130 L 490 460 Z" fill="#7fb4e8" opacity="0.35"/>
    <path d="M390 452 L 396 90 L 404 90 L 410 452 Z" fill="#a8d0f0" opacity="0.6"/>
    <path d="M352 456 L 368 240 L 372 240 L 360 456 Z" fill="#7fb4e8" opacity="0.4"/>
    <path d="M448 456 L 432 240 L 436 240 L 444 456 Z" fill="#7fb4e8" opacity="0.4"/>
  </g>
  <g fill="#a8d0f0" opacity="0.85">
    <circle cx="360" cy="180" r="2.5"/><circle cx="430" cy="150" r="2"/><circle cx="405" cy="220" r="2.5"/><circle cx="380" cy="120" r="2"/>
  </g>
  <rect width="800" height="600" filter="url(#rough)" opacity="0.5"/>
</svg>
