<svg xmlns="http://www.w3.org/2000/svg" viewBox="0 0 800 600">
  <defs>
    <linearGradient id="bg" x1="0" y1="0" x2="1" y2="1">
      <stop offset="0" stop-color="#0c0a11"/><stop offset="0.65" stop-color="#171320"/><stop offset="1" stop-color="#221a30"/>
    </linearGradient>
    <linearGradient id="blade" x1="0" y1="0" x2="1" y2="1">
      <stop offset="0" stop-color="#c9a7e8"/><stop offset="0.5" stop-color="#8a6ad4" stop-opacity="0.7"/><stop offset="1" stop-color="#8a6ad4" stop-opacity="0"/>
    </linearGradient>
    <filter id="rough"><feTurbulence type="fractalNoise" baseFrequency="0.8" numOctaves="2" seed="33"/><feColorMatrix type="saturate" values="0"/><feComponentTransfer><feFuncA type="linear" slope="0.13"/></feComponentTransfer></filter>
  </defs>
  <rect width="800" height="600" fill="url(#bg)"/>
  <g stroke="#241f31" stroke-width="2.5" opacity="0.8" fill="none">
    <path d="M80 120 L 720 120 M120 90 L 680 90"/>
  </g>
  <g>
    <path d="M410 160 C 375 160 360 195 364 228 C 367 256 385 272 410 272 C 435 272 453 256 456 228 C 460 195 445 160 410 160 Z" fill="#131019" stroke="#332b45" stroke-width="4"/>
    <path d="M330 480 C 332 370 360 296 410 290 C 460 296 488 370 490 480 Z" fill="#100d16" stroke="#332b45" stroke-width="4"/>
    <path d="M362 310 L 300 420 L 288 414 L 350 302 Z" fill="url(#blade)"/>
    <path d="M458 310 L 540 400 L 550 392 L 468 300 Z" fill="url(#blade)" opacity="0.85"/>
    <path d="M396 200 L 424 200 L 420 214 L 400 214 Z" fill="#b06ad4" opacity="0.9"/>
  </g>
  <g fill="#c9a7e8" opacity="0.75">
    <circle cx="250" cy="180" r="2.5"/><circle cx="590" cy="150" r="2"/><circle cx="640" cy="330" r="2.5"/>
  </g>
  <rect width="800" height="600" filter="url(#rough)" opacity="0.5"/>
</svg>
